<?xml version="1.0" encoding="utf-8"?>
<!-- Generator: Adobe Illustrator 22.0.1, SVG Export Plug-In . SVG Version: 6.00 Build 0)  -->
<svg version="1.1" id="圖層_1" xmlns="http://www.w3.org/2000/svg" xmlns:xlink="http://www.w3.org/1999/xlink" x="0px" y="0px"
	 viewBox="0 0 243 48" style="enable-background:new 0 0 243 48;" xml:space="preserve">
<style type="text/css">
	.st0{fill:#3D1101;}
</style>
<title>logo_l</title>
<desc>Created with Sketch.</desc>
<g id="Welcome">
	<g id="Artboard" transform="translate(-794.000000, -98.000000)">
		<path id="logo_l" class="st0" d="M806.7,121.9c-2.9,6.7-7.9,14.1-12.3,18.5c2,1.1,5.6,3.5,7.3,4.9c4.2-5.1,9.6-13.4,13.1-20.7
			L806.7,121.9z M820.1,124.9c3.9,6.4,9.6,14.8,12,20l7.6-4.2c-2.8-5.2-8.9-13.3-12.7-19.2L820.1,124.9z M817.7,111.1l6-2.2
			c-1.1-2.6-3.3-6.8-4.9-9.8l-7.5,2.5c1.4,2.9,3.2,6.8,4.1,9.4h-20.3v7.4h45v-7.4H817.7z M871.4,129.1v-3.4h7.5v3.4H871.4z
			 M864.6,125.8v3.4h-7.3c0.1-1.1,0.2-2.3,0.3-3.4H864.6z M867.7,107.5c-0.5,1-1.2,2-1.8,2.8h-8.7c0.8-0.9,1.5-1.9,2.2-2.8H867.7z
			 M857.6,116.5h7v3.3h-7V116.5z M878.9,119.8h-7.5v-3.3h7.5V119.8z M886,110.3h-12.3c1.4-2,2.7-4,3.8-5.7l-4.9-3.2l-1.1,0.3H863
			c0.2-0.5,0.5-1,0.8-1.5l-7.6-1.4c-2.2,4.9-6.2,10.2-12.3,14.3c1.6,1.1,4,3.6,5,5.2c0.6-0.5,1.2-0.9,1.8-1.4v6.5
			c0,5.9-0.6,12.9-7.7,17.6c1.4,1,4.1,3.6,5,5c4.1-2.7,6.5-6.6,7.9-10.7h23v2.6c0,0.9-0.4,1.2-1.5,1.2s-5.3,0-8.4-0.1
			c1,1.8,2.3,4.9,2.6,6.8c4.9,0,8.3-0.1,10.9-1.2c2.5-1.1,3.4-2.9,3.4-6.6V110.3z M917.4,112.7h-4.1v-4.3h4.1V112.7z M929,119.2v5.6
			c-0.2,0-0.4,0.1-0.8,0.1h-2.7c-1.2,0-1.4-0.1-1.4-2v-3.8H929z M902.4,136.3v-6.2c0.8,0.9,1.5,1.8,1.9,2.4
			c6.8-2.9,8.6-8.2,8.9-13.3h4.2v3.8c0,6.5,1.2,8.5,6.9,8.5h4.7h0.1v4.8H902.4z M906.9,119.2c-0.2,2.7-1.1,5.2-4.5,7.2v-7.2H906.9z
			 M937.7,108.4v-6.9h-44.6v6.9h13.8v4.3h-11.4v32.8h6.9v-2.6H929v2.6h7.3v-32.8h-12.2v-4.3H937.7z M955.8,109.7
			c-1.1,1.1-2.3,2.2-3.7,3.1c-0.8-0.7-2-1.5-3-2.1c0.3-0.3,0.7-0.7,1-1H955.8z M959.9,105.8l-1,0.2h-2.4v-1.1h7.7v-4.1h-7.7v-1.7
			h-5.9v6.5l-2.9-0.5c-1.4,2-3.8,4.1-7,5.7c1.1,0.7,2.8,2.5,3.6,3.7c0.5-0.3,0.9-0.6,1.4-0.9c0.7,0.5,1.6,1.2,2.3,1.8
			c-2,0.9-4,1.7-6,2.3c1.1,1,2.6,3,3.4,4.3c7.5-2.5,14.9-7,18.5-14L959.9,105.8z M953.5,125.4c1.7-0.7,3.3-1.6,4.9-2.5v1.8h12.2
			v-1.7c1.6,0.8,3.3,1.6,5,2.3H953.5z M977.7,136.5c-0.5,0.5-1.1,0.9-1.6,1.4c-1.3-0.5-2.7-0.9-4.1-1.4H977.7z M957.4,139.1v-2.5
			h7.6l-1.7,1.9l0.5,0.1L957.4,139.1z M957.4,132.1h14.8v0.9h-14.8V132.1z M957.4,128.9h14.8v0.8h-14.8V128.9z M960.7,121.5
			c1.1-0.7,2.2-1.5,3.2-2.3c1.1,0.8,2.4,1.5,3.6,2.3H960.7z M976.9,105.3c-0.7,0.9-1.5,1.7-2.4,2.5c-1.9-0.9-3.8-1.8-5.5-2.5H976.9z
			 M986.1,114.7c-1.6-1.3-3.8-2.7-6.2-4.1c2.3-2.4,4-5.2,5.2-8.7l-3.9-1.6l-1.1,0.2h-14.7v4.7h3.2l-3.8,3.7c1.4,0.6,2.9,1.3,4.4,2.1
			c-1,0.4-2,0.8-3,1.1c0.3,0.3,0.7,0.8,1.1,1.2l-3.1-1.6c-4.9,5.5-14.4,9.7-23,11.9c1.4,1.4,2.9,3.5,3.6,5c2-0.6,3.9-1.3,5.9-2.1
			v11.1c0,1.9-0.7,2.7-1.6,3.1c0.8,0.9,1.8,3.4,2,4.8c1.3-0.6,3.4-1,15.2-2.1c-0.1-1,0-2.7,0-4.1c5.8,1.9,12.5,4.6,16,6.7l3.3-4
			c-1.2-0.7-2.8-1.4-4.5-2.1c1.4-1,2.9-2.1,4.3-3.2l-4.9-3c-0.5,0.5-1,1.1-1.7,1.7v-8.7c1.9,0.7,3.7,1.2,5.4,1.7
			c0.8-1.5,2.6-3.8,3.9-5c-7-1.5-15.3-4.3-20.4-7.3c0.2-0.3,0.5-0.6,0.8-0.9c0.4,0.7,0.8,1.3,1.1,1.9c2-0.7,3.8-1.6,5.5-2.6
			c2.7,1.6,5,3.2,6.6,4.6L986.1,114.7z M1006.4,123.8v-1.3h2.5v1.2L1006.4,123.8z M1008.9,113.5v1.1h-2.5v-1.1H1008.9z
			 M1006.4,117.9h2.5v1.3h-2.5V117.9z M1014.1,113.5h1.6v-4.3h-15.5v4.3h1.4v10.4l-2,0l0.3,4.8c2.7-0.2,5.8-0.4,9.1-0.6v4.4l-2.1-4
			c-2.1,0.5-5.2,0.9-8,1.1c0.5-4.5,0.6-8.9,0.6-12.5v-9.6h36.7v-5.4h-17.9c-0.6-1.3-1.6-2.7-2.5-3.9l-6.1,2.4c0.3,0.5,0.7,1,1,1.5
			h-17.4v15c0,7.3-0.2,17.6-3.4,24.6c1.4,0.6,4.3,2.7,5.4,3.9c2-4.1,3-9.5,3.7-14.8c0.3,0.9,0.5,1.9,0.6,2.5c0.7,0,1.6,0,2.4,0v1.3
			h-2.3v3.6h2.3v1.7l-3.7,0.2l0.4,4.3c3-0.2,6.3-0.5,9.8-0.9l-0.1-4l-2.2,0.1v-1.4h2.1v-3.6h-2.1v-1.6c1-0.1,2-0.2,2.9-0.4v12.8h5.1
			v-2.9l3.3,1.5c1.4-2.1,1.9-5.4,2.2-8.6l-4.4-1.2c-0.1,2-0.5,4.1-1.2,5.8V113.5z M1029.7,119.9h1.3v2.4h-1.3V119.9z M1026.2,122.3
			h-1.3v-2.4h1.3V122.3z M1021.4,122.3h-1.2v-2.4h1.2V122.3z M1035.5,114.7V110h-7.1v-1.8h-5.9v1.8h-6.5v4.7h6.5v1.4h-6.3v10h19v-10
			h-6.8v-1.4H1035.5z M1025.2,141c-0.6,0-0.7-0.1-0.7-1.1v-4c0.6,0.8,1.1,1.6,1.4,2.2l3.6-2.2c0.5,1.1,1.1,2.4,1.5,3.6
			c-1.3-0.3-2.9-1-3.6-1.6c-0.1,2.7-0.3,3.1-0.9,3.1H1025.2z M1036.7,141.8c-0.3-2.4-1.8-5.8-3.4-8.5l-4,1.4
			c-0.6-0.9-1.5-1.9-2.4-2.8h9.6v-4.6h-21.2v4.6h7.9l-1.4,0.8c0.6,0.5,1.2,1.2,1.7,1.9h-3.8v5.3c0,4.1,0.8,5.4,4.7,5.4h2.7
			c2.5,0,3.8-1,4.4-4.5c0.3,1,0.5,1.9,0.6,2.6L1036.7,141.8z"/>
	</g>
</g>
</svg>
